HIERARCHY
ROOT joint_Root
{
	OFFSET 0.0 0.0 0.0
	CHANNELS 6 Xposition Yposition Zposition Zrotation Xrotation Yrotation 
	JOINT Hips
	{
		OFFSET -17.1583 93.1646 452.98
		CHANNELS 6 Xposition Yposition Zposition Zrotation Xrotation Yrotation 
		JOINT Spine
		{
			OFFSET 15.7357 0.0 0.0
			CHANNELS 6 Xposition Yposition Zposition Zrotation Xrotation Yrotation 
			JOINT Chest
			{
				OFFSET 8.98455 -0.406207 0.0
				CHANNELS 6 Xposition Yposition Zposition Zrotation Xrotation Yrotation 
				JOINT Neck
				{
					OFFSET 16.3773 0.0 0.0
					CHANNELS 6 Xposition Yposition Zposition Zrotation Xrotation Yrotation 
					JOINT Head
					{
						OFFSET 6.45672 0.0 0.0
						CHANNELS 6 Xposition Yposition Zposition Zrotation Xrotation Yrotation 
						End Site
						{
							OFFSET 0.0 0.0 0.0
						}
					}
				}
				JOINT Shoulder_L
				{
					OFFSET 12.9942 -0.242716 4.98039
					CHANNELS 6 Xposition Yposition Zposition Zrotation Xrotation Yrotation 
					JOINT UpperArm_L
					{
						OFFSET 5.34809 0.0 0.0
						CHANNELS 6 Xposition Yposition Zposition Zrotation Xrotation Yrotation 
						JOINT LowerArm_L
						{
							OFFSET 24.3286 1.87007e-05 0.0
							CHANNELS 6 Xposition Yposition Zposition Zrotation Xrotation Yrotation 
							JOINT Hand_L
							{
								OFFSET 22.2916 0.0 0.0
								CHANNELS 6 Xposition Yposition Zposition Zrotation Xrotation Yrotation 
								End Site
								{
									OFFSET 0.0 0.0 0.0
								}
							}
						}
					}
				}
				JOINT Shoulder_R
				{
					OFFSET 12.9945 -0.242716 -4.98039
					CHANNELS 6 Xposition Yposition Zposition Zrotation Xrotation Yrotation 
					JOINT UpperArm_R
					{
						OFFSET -5.34813 0.0 0.0
						CHANNELS 6 Xposition Yposition Zposition Zrotation Xrotation Yrotation 
						JOINT LowerArm_R
						{
							OFFSET -24.3289 0.000322201 0.0
							CHANNELS 6 Xposition Yposition Zposition Zrotation Xrotation Yrotation 
							JOINT Hand_R
							{
								OFFSET -22.2915 -0.000108084 0.0
								CHANNELS 6 Xposition Yposition Zposition Zrotation Xrotation Yrotation 
								End Site
								{
									OFFSET 0.0 0.0 0.0
								}
							}
						}
					}
				}
			}
		}
		JOINT UpperLeg_L
		{
			OFFSET -2.19248 -6.46944 0.0
			CHANNELS 6 Xposition Yposition Zposition Zrotation Xrotation Yrotation 
			JOINT LowerLeg_L
			{
				OFFSET 39.0811 0.0 -1.23785e-05
				CHANNELS 6 Xposition Yposition Zposition Zrotation Xrotation Yrotation 
				JOINT Foot_L
				{
					OFFSET 40.9854 0.0 -1.26872e-05
					CHANNELS 6 Xposition Yposition Zposition Zrotation Xrotation Yrotation 
					JOINT Toes_L
					{
						OFFSET 11.7543 0.0 0.0
						CHANNELS 6 Xposition Yposition Zposition Zrotation Xrotation Yrotation 
						End Site
						{
							OFFSET 0.0 0.0 0.0
						}
					}
				}
			}
		}
		JOINT UpperLeg_R
		{
			OFFSET -2.19251 6.46944 0.0
			CHANNELS 6 Xposition Yposition Zposition Zrotation Xrotation Yrotation 
			JOINT LowerLeg_R
			{
				OFFSET -39.0811 -0.00228153 -0.0401928
				CHANNELS 6 Xposition Yposition Zposition Zrotation Xrotation Yrotation 
				JOINT Foot_R
				{
					OFFSET -40.9854 0.0 0.0
					CHANNELS 6 Xposition Yposition Zposition Zrotation Xrotation Yrotation 
					JOINT Toes_R
					{
						OFFSET -11.7543 0.0 0.0
						CHANNELS 6 Xposition Yposition Zposition Zrotation Xrotation Yrotation 
						End Site
						{
							OFFSET 0.0 0.0 0.0
						}
					}
				}
			}
		}
	}
}
MOTION
Frames:	7
Frame Time:	0.0333333
0.000000 0.000000 0.000000 0.000000 0.000000 -0.000000 -0.727820 92.826800 -2.847540 86.267300 0.817309 1.923580 15.735700 0.000005 -0.000001 82.780600 87.227900 -80.561700 8.984550 -0.406207 -0.000000 -2.244730 -0.890265 4.420020 16.377300 -0.000001 -0.000001 4.683860 3.515510 -0.702814 6.456720 -0.000001 -0.000000 3.260690 4.737040 -4.645810 12.994200 -0.242716 4.980390 -93.057300 9.217620 -71.560000 5.348090 -0.000007 -0.000001 -72.773300 26.830800 1.077460 24.328600 0.000019 0.000005 13.377300 27.176800 -27.505000 22.291600 -0.000001 0.000005 -3.957040 5.041850 6.416270 12.994500 -0.242716 -4.980390 88.674800 4.323920 -72.942600 -5.348130 -0.000001 -0.000004 -70.986700 28.163700 -1.154090 -24.328900 0.000322 -0.000009 3.188640 8.391040 -20.899600 -22.291500 -0.000108 -0.000004 -1.467860 5.272960 0.818887 -2.192480 -6.469440 -0.000000 -176.019000 2.871600 -5.276380 39.081100 -0.000007 -0.000012 0.250123 -0.590563 22.954700 40.985400 -0.000006 -0.000013 2.034300 6.553060 -71.503100 11.754300 -0.000000 0.000003 0.000521 0.158331 -10.155400 -2.192510 6.469440 -0.000001 -173.553000 6.198970 -179.577000 -39.081100 -0.002282 -0.040193 0.075431 -0.295139 13.727800 -40.985400 0.000008 0.000006 2.389040 0.145108 -68.782700 -11.754300 -0.000006 -0.000006 -0.010745 0.276791 -5.326540
0.000000 0.000000 0.000000 0.000000 0.000000 -0.000000 -0.750183 92.837500 -2.886520 86.251600 0.970596 1.772530 15.735700 0.000005 -0.000001 82.139900 87.221200 -79.875000 8.984550 -0.406207 -0.000000 -2.237860 -0.957412 4.510660 16.377300 -0.000001 -0.000001 4.474090 3.459330 -0.492462 6.456720 -0.000001 -0.000000 2.890950 4.737790 -4.536590 12.994200 -0.242716 4.980390 -93.049900 9.199760 -71.568800 5.348090 -0.000007 -0.000001 -72.904700 26.827000 1.138400 24.328600 0.000019 0.000005 13.430500 27.147700 -27.625200 22.291600 -0.000001 0.000005 -3.949800 5.041310 6.428150 12.994500 -0.242716 -4.980390 88.686000 4.256850 -72.828400 -5.348130 -0.000001 -0.000004 -70.009000 27.567500 -0.773741 -24.328900 0.000322 -0.000009 4.038600 9.532150 -23.092600 -22.291500 -0.000108 -0.000004 -3.057820 5.267350 0.970573 -2.192480 -6.469440 -0.000000 -175.980000 2.985210 -5.466520 39.081100 -0.000007 -0.000012 0.249409 -0.589599 22.929600 40.985400 -0.000006 -0.000013 2.016160 6.581310 -71.475500 11.754300 -0.000000 0.000003 0.000559 0.157621 -10.184200 -2.192510 6.469440 -0.000001 -173.472000 6.103760 -179.706000 -39.081100 -0.002282 -0.040193 0.074540 -0.294267 13.603100 -40.985400 0.000008 0.000006 2.411090 -0.110024 -68.748900 -11.754300 -0.000006 -0.000006 -0.011006 0.278675 -5.249450
0.000000 0.000000 0.000000 0.000000 0.000000 -0.000000 -0.773390 92.838700 -2.909630 86.206100 1.185280 1.723260 15.735700 0.000005 -0.000001 80.990100 87.158500 -78.659000 8.984550 -0.406207 -0.000000 -2.126800 -1.090870 4.641450 16.377300 -0.000001 -0.000001 4.198060 3.344370 -0.204758 6.456720 -0.000001 -0.000000 2.294100 4.746570 -4.363830 12.994200 -0.242716 4.980390 -93.027800 9.131590 -71.567100 5.348090 -0.000007 -0.000001 -73.125500 26.816300 1.206450 24.328600 0.000019 0.000005 13.474000 27.128900 -27.719300 22.291600 -0.000001 0.000005 -3.876180 5.041880 6.415580 12.994500 -0.242716 -4.980390 88.695700 4.183760 -72.667400 -5.348130 -0.000001 -0.000004 -68.704400 26.018900 -0.200960 -24.328900 0.000322 -0.000009 5.370170 10.858300 -26.520300 -22.291500 -0.000108 -0.000004 -4.905100 5.245820 1.548340 -2.192480 -6.469440 -0.000000 -175.913000 3.166580 -5.597170 39.081100 -0.000007 -0.000012 0.250000 -0.589451 22.983400 40.985400 -0.000006 -0.000013 2.003090 6.623320 -71.462000 11.754300 -0.000000 0.000003 0.000547 0.157846 -10.175100 -2.192510 6.469440 -0.000001 -173.400000 6.146050 -179.763000 -39.081100 -0.002282 -0.040193 0.072297 -0.285653 13.573000 -40.985400 0.000008 0.000006 2.261300 -0.208665 -68.699500 -11.754300 -0.000006 -0.000006 -0.010995 0.278592 -5.252830
0.000000 0.000000 0.000000 0.000000 0.000000 -0.000000 -0.798089 92.849700 -2.959800 86.147600 1.381830 1.569530 15.735700 0.000005 -0.000001 79.791000 87.118300 -77.385800 8.984550 -0.406207 -0.000000 -2.063780 -1.227420 4.787760 16.377300 -0.000001 -0.000001 3.872920 3.221650 0.091522 6.456720 -0.000001 -0.000000 1.574920 4.781250 -3.923250 12.994200 -0.242716 4.980390 -93.010000 9.080280 -71.573000 5.348090 -0.000007 -0.000001 -73.280400 26.941600 1.297610 24.328600 0.000019 0.000005 13.506600 27.044100 -27.847000 22.291600 -0.000001 0.000005 -3.888690 5.043380 6.382820 12.994500 -0.242716 -4.980390 88.692300 4.149650 -72.491800 -5.348130 -0.000001 -0.000004 -67.161900 23.363700 0.659666 -24.328900 0.000322 -0.000009 6.700480 11.198000 -31.173300 -22.291500 -0.000108 -0.000004 -6.828290 5.195710 2.838180 -2.192480 -6.469440 -0.000000 -175.819000 3.297670 -5.833230 39.081100 -0.000007 -0.000012 0.250801 -0.590684 23.006300 40.985400 -0.000006 -0.000013 1.986030 6.694450 -71.470900 11.754300 -0.000000 0.000003 0.000609 0.156660 -10.223200 -2.192510 6.469440 -0.000001 -173.305000 6.209600 -179.900000 -39.081100 -0.002282 -0.040193 0.069322 -0.276423 13.426800 -40.985400 0.000008 0.000006 2.222110 -0.324258 -68.603200 -11.754300 -0.000006 -0.000006 -0.011343 0.281081 -5.150950
0.000000 0.000000 0.000000 0.000000 0.000000 -0.000000 -0.822926 92.842500 -2.998330 86.069500 1.527800 1.484330 15.735700 0.000005 -0.000001 78.525000 87.050700 -76.024900 8.984550 -0.406207 -0.000000 -1.950490 -1.385000 4.975810 16.377300 -0.000001 -0.000001 3.620960 3.122460 0.424125 6.456720 -0.000001 -0.000000 0.666569 4.864020 -3.361770 12.994200 -0.242716 4.980390 -93.001100 9.067370 -71.599500 5.348090 -0.000007 -0.000001 -73.407600 27.103300 1.431210 24.328600 0.000019 0.000005 13.586900 27.036000 -27.999500 22.291600 -0.000001 0.000005 -3.934360 5.042660 6.398570 12.994500 -0.242716 -4.980390 88.718200 4.014630 -72.276300 -5.348130 -0.000001 -0.000004 -65.733300 19.039100 1.769940 -24.328900 0.000322 -0.000009 8.426330 11.261900 -37.180500 -22.291500 -0.000108 -0.000004 -8.545070 5.124710 4.546900 -2.192480 -6.469440 -0.000000 -175.710000 3.390530 -6.044770 39.081100 -0.000007 -0.000012 0.253655 -0.593298 23.148900 40.985400 -0.000006 -0.000013 1.982810 6.775720 -71.506300 11.754300 -0.000000 0.000003 0.000437 0.159913 -10.091200 -2.192510 6.469440 -0.000001 -173.186000 6.240890 179.990000 -39.081100 -0.002282 -0.040193 0.069815 -0.278832 13.410600 -40.985400 0.000008 0.000006 2.234060 -0.410002 -68.590200 -11.754300 -0.000006 -0.000006 -0.011470 0.281976 -5.114300
0.000000 0.000000 0.000000 0.000000 0.000000 -0.000000 -0.846855 92.849600 -3.050820 85.956100 1.626490 1.307000 15.735700 0.000005 -0.000001 76.978700 87.000800 -74.378300 8.984550 -0.406207 -0.000000 -1.881260 -1.569940 5.174210 16.377300 -0.000001 -0.000001 3.362950 3.074870 0.853429 6.456720 -0.000001 -0.000000 -0.328441 5.132850 -2.533800 12.994200 -0.242716 4.980390 -92.974700 8.965400 -71.559100 5.348090 -0.000007 -0.000001 -73.587300 27.277500 1.496040 24.328600 0.000019 0.000005 13.542400 26.976500 -27.967000 22.291600 -0.000001 0.000005 -4.021910 5.037190 6.517850 12.994500 -0.242716 -4.980390 88.759400 3.825370 -72.016100 -5.348130 -0.000001 -0.000004 -64.475600 13.780300 3.031300 -24.328900 0.000322 -0.000009 10.836800 11.188100 -44.610000 -22.291500 -0.000108 -0.000004 -9.137820 5.060250 6.009790 -2.192480 -6.469440 -0.000000 -175.569000 3.528600 -6.319160 39.081100 -0.000007 -0.000012 0.255820 -0.595939 23.233000 40.985400 -0.000006 -0.000013 1.943660 6.720350 -71.551500 11.754300 -0.000000 0.000003 0.000583 0.157158 -10.203000 -2.192510 6.469440 -0.000001 -173.077000 6.419570 179.814000 -39.081100 -0.002282 -0.040193 0.064946 -0.260682 13.298000 -40.985400 0.000008 0.000006 2.057380 -0.233200 -68.409200 -11.754300 -0.000006 -0.000006 -0.010864 0.277650 -5.291400
0.000000 0.000000 0.000000 0.000000 0.000000 -0.000000 -0.900565 92.832000 -3.101050 85.851100 1.708590 1.219330 15.735700 0.000005 -0.000001 74.634500 86.946100 -71.922500 8.984550 -0.406207 -0.000000 -1.827430 -1.844910 5.393910 16.377300 -0.000001 -0.000001 3.321090 3.146280 1.361360 6.456720 -0.000001 -0.000000 -1.349240 5.542010 -1.570530 12.994200 -0.242716 4.980390 -92.944700 8.862650 -71.537100 5.348090 -0.000007 -0.000001 -73.854100 27.290800 1.699490 24.328600 0.000019 0.000005 13.517300 27.063800 -27.850400 22.291600 -0.000001 0.000005 -4.042820 5.036900 6.524520 12.994500 -0.242716 -4.980390 88.834200 3.546720 -71.790700 -5.348130 -0.000001 -0.000004 -63.614300 7.439550 4.341290 -24.328900 0.000322 -0.000009 13.864400 10.685600 -53.077600 -22.291500 -0.000108 -0.000004 -9.005560 5.009870 7.107620 -2.192480 -6.469440 -0.000000 -175.427000 3.731710 -6.577820 39.081100 -0.000007 -0.000012 0.262032 -0.603308 23.477100 40.985400 -0.000006 -0.000013 1.880530 6.610340 -71.679400 11.754300 -0.000000 0.000003 0.000511 0.158536 -10.147100 -2.192510 6.469440 -0.000001 -172.895000 6.526680 179.682000 -39.081100 -0.002282 -0.040193 0.067391 -0.270938 13.302200 -40.985400 0.000008 0.000006 2.241170 -0.283989 -68.435500 -11.754300 -0.000006 -0.000006 -0.011132 0.279580 -5.212400
